PathFileType  4	(X/Y/Z) C:\Users\antoi\Documents\MyRepositories\mobilecap\ResultsAnalysis
DataRate	CameraRate	NumFrames	NumMarkers	Units	OrigDataRate	OrigDataStartFrame	OrigNumFrames
100.0	100.0	6	51	mm	100.0	94	248
Frame#	Time	r_knee			r_shank_antsup			r_ankle			r_calc			r_5meta			r_toe			L_knee			L_shank_antsup			L_ankle			L_calc			L_5meta			L_toe			r_sh2			r_sh3			r_sh4			L_sh2			L_sh3			r_thigh1			r_thigh2			r_thigh3			r_thigh4			r_thigh5			L_thigh1			L_thigh2			L_thigh3			L_thigh4			r.ASIS			r.PSIS			L.ASIS			L.PSIS			C7			R_Shoulder			L_Shoulder			R_Sternum			L_Sternum			R_humerus			R_elbow_med			R_elbow_lat			R_forearm			R_wrist_radius			R_wrist_ulna			L_humerus			L_elbow_med			L_elbow_lat			L_forearm			L_wrist_radius			L_wrist_ulna			R_HJC			L_HJC			R_HJC_reg			L_HJC_reg			
		X1	Y1	Z1	X2	Y2	Z2	X3	Y3	Z3	X4	Y4	Z4	X5	Y5	Z5	X6	Y6	Z6	X7	Y7	Z7	X8	Y8	Z8	X9	Y9	Z9	X10	Y10	Z10	X11	Y11	Z11	X12	Y12	Z12	X13	Y13	Z13	X14	Y14	Z14	X15	Y15	Z15	X16	Y16	Z16	X17	Y17	Z17	X18	Y18	Z18	X19	Y19	Z19	X20	Y20	Z20	X21	Y21	Z21	X22	Y22	Z22	X23	Y23	Z23	X24	Y24	Z24	X25	Y25	Z25	X26	Y26	Z26	X27	Y27	Z27	X28	Y28	Z28	X29	Y29	Z29	X30	Y30	Z30	X31	Y31	Z31	X32	Y32	Z32	X33	Y33	Z33	X34	Y34	Z34	X35	Y35	Z35	X36	Y36	Z36	X37	Y37	Z37	X38	Y38	Z38	X39	Y39	Z39	X40	Y40	Z40	X41	Y41	Z41	X42	Y42	Z42	X43	Y43	Z43	X44	Y44	Z44	X45	Y45	Z45	X46	Y46	Z46	X47	Y47	Z47	X48	Y48	Z48	X49	Y49	Z49	X50	Y50	Z50	X51	Y51	Z51	

94	0.93000000	-608.46702	1020.69197	-438.24248	-580.65692	901.34718	-443.53248	-678.98346	566.84415	-442.25924	-742.21674	577.36999	-497.35145	-606.74704	418.24152	-434.80034	-548.62358	439.03350	-490.34482	-651.98794	1005.81107	-800.02783	-611.31878	902.64850	-792.44149	-706.75657	562.87995	-787.86657	-766.46311	561.92597	-727.55582	-614.13318	425.74062	-812.12756	-564.72126	442.63264	-753.85313	-580.36734	786.29910	-458.77577	-645.24602	894.01463	-400.24937	-639.07375	778.10153	-397.06818	-697.53240	907.16401	-817.60634	-683.76530	786.42435	-837.32507	-524.19690	1256.75402	-464.59124	-521.57496	1145.45377	-474.99130	-546.17879	1116.92607	-418.64747	-605.58845	1243.96204	-386.50725	-598.72684	1127.26661	-404.79313	-586.26500	1261.31789	-819.52067	-570.41214	1125.61673	-807.74152	-696.59691	1245.61296	-839.25331	-678.62837	1108.81629	-826.69862	-554.66145	1507.71026	-483.69628	-745.07726	1594.11279	-556.70996	-577.22740	1496.84300	-749.94067	-752.56298	1592.71908	-655.32905	-541.50392	2057.58222	-606.86021	-491.61160	1992.69656	-432.12827	-492.25435	2023.69265	-772.07593	-428.80924	1936.42563	-589.96837	-433.02739	1937.87272	-637.80062	-584.83203	1886.24159	-329.37632	-809.72918	1794.51660	-341.51023	-770.03522	1810.57966	-265.56345	-771.67244	1629.53811	-255.41552	-802.80811	1514.38096	-238.22515	-823.92029	1524.10151	-202.84756	-594.18139	1937.73243	-900.82860	-809.18812	1852.14889	-899.76031	-770.15609	1861.22675	-972.54892	-748.63073	1687.40210	-972.48517	-764.36140	1575.18723	-1009.54845	-788.03150	1590.04827	-1049.92885	-657.43935	1452.78669	-510.08146	-675.42980	1433.94199	-721.87708	-650.79907	1446.65758	-513.75984	-664.15735	1444.17134	-689.73285	
95	0.94000000	-597.62555	1016.15313	-438.51096	-567.28992	897.68002	-443.52728	-657.53371	560.68433	-443.13060	-720.64032	569.03699	-498.86927	-580.84929	414.92088	-433.33118	-522.52652	436.96421	-488.90572	-642.37814	1000.50932	-800.89710	-599.40577	898.69823	-794.12256	-684.92655	556.20013	-790.74954	-743.60600	553.95130	-728.92197	-589.70768	421.22584	-816.18518	-539.82970	439.06632	-758.40162	-564.16578	782.68179	-458.78552	-631.85357	888.85699	-400.43670	-622.84469	773.06008	-397.30802	-685.95630	900.71652	-818.43611	-668.84744	780.47025	-838.54060	-516.07625	1252.84368	-464.86389	-512.23861	1141.50857	-475.20200	-536.60009	1112.81066	-418.76304	-597.28015	1239.15625	-386.56694	-589.28500	1122.59931	-405.06248	-578.79238	1256.54501	-819.67419	-561.75790	1121.13094	-808.24152	-688.97361	1239.83598	-839.69140	-669.71573	1103.28819	-827.55662	-547.16878	1502.00615	-484.51516	-736.98429	1589.53678	-557.40746	-570.29890	1491.05304	-749.88157	-744.59269	1587.89404	-655.98784	-528.94706	2050.85911	-607.57005	-479.39861	1985.74994	-432.99673	-479.76963	2016.97289	-772.75443	-417.32017	1929.37755	-590.73070	-421.52017	1930.70807	-638.67275	-573.75560	1880.90532	-330.05637	-800.07530	1792.69040	-341.96111	-759.99590	1807.89383	-266.13086	-766.20483	1626.86078	-255.86724	-800.36304	1512.34924	-238.46304	-821.10117	1522.81487	-203.00433	-582.88507	1932.70112	-901.71288	-798.96252	1849.96429	-900.16070	-759.92934	1858.70900	-973.11630	-742.75333	1684.27329	-975.07804	-761.59487	1572.99072	-1011.64610	-784.75676	1588.60488	-1051.81980	-650.34269	1447.75051	-510.43555	-668.62097	1428.63198	-722.18191	-643.72285	1442.02907	-514.15610	-657.26231	1439.10652	-689.56435	
96	0.95000000	-586.63480	1010.60661	-438.71621	-553.84653	893.17231	-443.51808	-636.14912	554.14328	-443.53298	-699.02335	560.22678	-500.29003	-555.44147	410.86574	-431.80599	-497.14871	434.08954	-486.98465	-632.56196	994.27282	-801.71596	-587.27992	893.76538	-795.57843	-663.07165	548.85147	-793.74168	-720.74738	545.91925	-730.11113	-566.34430	415.73759	-820.26593	-515.85888	434.18011	-763.02573	-547.94402	778.26423	-458.84387	-618.23696	882.79825	-400.45073	-606.28884	767.21453	-397.65537	-674.02296	893.44571	-819.38134	-653.59197	773.81645	-840.11712	-507.86712	1247.90528	-465.33106	-502.87583	1136.56166	-475.67233	-526.81817	1107.68944	-419.16174	-588.70464	1233.36919	-386.76553	-579.60377	1116.90022	-405.52133	-571.32362	1250.84734	-819.78395	-553.13886	1115.83287	-808.70075	-681.31274	1233.31269	-840.28675	-660.78401	1096.85846	-828.45721	-539.67059	1495.17926	-485.41624	-729.03291	1583.68892	-558.10035	-563.31999	1484.03841	-750.10319	-736.83520	1582.01130	-656.40684	-516.49021	2043.07187	-608.32647	-467.27180	1977.78217	-433.88929	-467.28157	2009.21324	-773.43775	-405.94280	1921.29232	-591.38935	-410.05574	1922.40223	-639.53593	-562.75607	1874.45058	-330.76316	-790.39390	1789.84216	-342.39964	-749.94573	1804.21475	-266.68618	-760.72608	1623.18269	-256.19335	-797.97121	1509.30533	-238.94331	-818.16518	1520.68990	-203.09103	-571.57624	1926.63463	-902.57109	-788.68018	1846.85273	-900.47910	-749.71114	1855.22920	-973.49599	-736.87064	1680.30065	-977.11598	-758.53098	1569.83292	-1013.41424	-781.30213	1586.14013	-1053.55560	-643.21090	1441.51749	-510.84812	-661.90534	1422.18494	-722.53851	-636.50145	1435.84511	-514.71103	-650.38905	1432.85961	-689.67742	
97	0.96000000	-575.51319	1004.05543	-438.93799	-540.23374	887.71812	-443.50646	-614.80164	546.99926	-443.63482	-677.24354	551.26516	-501.33391	-530.75823	405.62020	-430.62688	-472.55326	430.10666	-484.94139	-622.40938	987.13743	-802.64412	-574.82161	887.90696	-796.97731	-641.56547	541.02347	-796.43550	-698.19947	537.62073	-731.19347	-543.78383	409.23064	-823.97015	-492.57556	428.33400	-767.70664	-531.61031	773.04789	-458.80883	-604.47175	875.87904	-400.51778	-589.67395	760.69934	-397.72529	-661.63817	885.41203	-820.42723	-637.99914	766.49326	-842.02421	-499.53680	1242.00371	-465.82588	-493.36217	1130.67958	-476.31052	-516.82802	1101.23211	-420.07388	-579.88999	1226.63202	-387.04617	-569.63825	1110.16796	-406.06873	-563.89620	1244.43574	-819.98324	-544.45297	1109.58001	-809.17190	-673.60081	1225.93454	-840.96865	-651.74706	1089.55158	-829.39008	-532.20766	1487.29581	-486.22876	-721.15356	1576.97580	-558.66159	-556.32300	1475.75372	-750.46683	-729.15261	1575.22064	-656.57172	-504.08344	2034.30496	-609.12749	-455.27159	1968.78346	-434.66604	-454.82378	2000.43270	-774.15972	-394.68120	1912.09029	-592.40413	-398.59940	1913.01507	-640.31308	-551.86959	1866.72406	-331.48410	-780.67742	1785.87773	-342.72572	-739.87416	1799.49160	-267.21119	-755.15523	1618.53263	-256.47195	-795.43891	1505.57952	-239.41047	-815.12044	1517.74420	-203.18288	-560.25711	1919.50581	-903.38120	-778.40770	1842.76274	-900.84685	-739.47359	1850.79807	-973.96461	-730.86721	1675.48829	-978.30507	-755.35990	1565.69139	-1014.93542	-777.63179	1582.69943	-1055.20664	-636.16019	1434.31034	-511.13387	-655.39742	1414.68918	-722.74902	-629.38923	1428.59050	-515.17023	-643.65997	1425.45889	-689.84726	
98	0.97000000	-564.22991	996.65231	-439.12290	-526.55495	881.45098	-443.35251	-593.41987	539.08462	-443.61426	-655.37181	542.08483	-502.03844	-506.80008	399.33532	-429.54410	-448.51119	424.91154	-483.11342	-611.85042	979.14661	-803.83041	-561.99370	881.16286	-798.39696	-620.64218	532.79736	-798.71655	-676.13541	528.77136	-732.44362	-521.68415	401.84977	-827.19258	-469.76326	421.93995	-772.24827	-515.13661	767.04054	-458.50009	-590.55596	868.15340	-400.61537	-572.99144	753.38389	-397.57498	-648.78831	876.66089	-821.79570	-622.14329	758.41010	-844.04359	-491.14350	1235.14913	-466.43974	-483.61693	1124.05543	-476.82209	-506.62855	1093.53535	-421.29320	-570.94937	1218.90365	-387.37842	-559.45831	1102.54830	-406.47471	-556.46876	1237.24053	-820.28104	-535.52908	1102.29086	-809.65324	-665.84729	1217.52065	-841.54818	-642.52041	1081.40393	-830.35701	-524.71740	1478.39238	-486.89370	-713.20309	1569.42063	-559.14524	-549.34258	1466.40926	-750.75091	-721.32575	1567.51089	-656.83901	-491.68838	2024.61131	-609.88129	-443.33244	1958.68539	-435.39802	-442.44842	1990.58825	-774.91445	-383.39574	1901.66848	-594.08732	-387.17677	1902.60606	-641.13102	-541.07172	1857.92428	-332.17555	-771.10820	1781.03444	-343.20345	-729.85620	1793.67486	-267.68247	-749.62282	1613.15341	-256.88260	-792.79131	1501.24328	-239.74658	-812.01158	1514.02428	-203.30422	-548.94469	1911.28227	-904.11607	-768.18357	1837.75261	-901.34322	-729.26230	1845.35595	-974.66817	-724.75100	1669.82558	-979.29494	-752.13198	1560.72094	-1016.33782	-773.80649	1578.43690	-1056.68011	-629.16105	1426.18933	-511.33000	-648.91319	1406.21342	-722.86465	-622.41381	1420.44055	-515.52215	-636.91761	1417.03068	-689.96883	
99	0.98000000	-552.73197	988.43061	-439.20473	-512.91878	874.52660	-443.01801	-571.99885	530.48609	-443.41646	-633.66906	532.41413	-502.61965	-483.34803	392.42371	-428.21707	-424.91028	418.69785	-481.45605	-600.88209	970.23066	-804.99881	-548.87603	873.40122	-799.79263	-600.26913	523.85450	-800.59497	-654.78593	518.96756	-734.19852	-499.65265	394.04041	-830.27012	-447.31429	415.29952	-776.48467	-498.67111	760.23507	-457.95091	-576.54584	859.60992	-400.55670	-556.35526	745.15459	-397.41543	-635.57590	867.08745	-823.41210	-606.19042	749.52246	-846.08591	-482.66099	1227.31441	-467.33797	-473.79115	1116.49127	-477.48649	-496.23308	1085.14452	-422.24774	-561.84625	1210.22947	-387.76398	-549.14009	1094.06638	-406.82213	-548.90037	1229.11481	-820.62935	-526.29571	1094.15524	-810.25499	-657.99659	1208.11162	-842.09434	-633.10098	1072.35617	-831.25025	-517.18164	1468.39317	-487.46545	-705.15042	1560.85580	-559.65779	-542.33116	1456.12225	-751.11952	-713.47919	1558.83867	-657.46117	-479.32212	2013.93601	-610.60979	-431.37252	1947.49194	-436.14877	-430.13727	1979.61961	-775.64183	-372.05154	1890.13327	-595.57356	-375.88741	1891.10296	-641.92752	-530.32155	1848.21734	-332.79114	-761.87188	1775.75559	-344.26188	-719.96084	1786.87598	-268.15433	-744.19887	1607.00491	-257.43973	-790.13859	1496.14735	-240.22151	-808.83297	1509.53866	-203.50158	-537.67012	1901.98789	-904.75782	-757.98525	1831.97882	-901.95237	-719.11597	1838.91844	-975.33352	-718.59438	1663.30605	-980.28935	-748.70660	1554.96049	-1017.58288	-769.83431	1573.35533	-1057.96131	-622.18719	1417.04445	-511.64558	-642.34961	1396.77860	-723.11403	-615.37746	1411.21958	-515.79098	-630.22205	1407.62481	-690.11221	
